Be careful what you wish for. After having the worst day of his life Allan (Hauser) meets Jonas (Gooding Jr) at a bar. After talking to him Jonas says he can help Allan with his problems. Thinking it's a joke Allan gives him the name of five people he wants dead. When they begin to wind up dead Allan is the only one who can stop it.
 
http://leetleech.org/images/14414319053094096497.jpg

Video
ID : 0
Format : MPEG-4 Visual
Format profile : Advanced Simple@L5
Format settings, BVOP : Yes
Format settings, QPel : No
Format settings, GMC : No warppoints
Format settings, Matrix : Default (H.263)
Muxing mode : Packed bitstream
Codec ID : XVID
Codec ID/Hint : XviD
Duration : 1h 30mn
Bit rate : 971 Kbps
Width : 656 pixels
Height : 352 pixels
Display aspect ratio : 1.864
Frame rate : 23.976 fps
Color space : YUV
Chroma subsampling : 4:2:0
Bit depth : 8 bits
Scan type : Progressive
Bits/(Pixel*Frame) : 0.175
Stream size : 626 MiB (89%)
Writing library : XviD 57

Audio
ID : 1
Format : MPEG Audio
Format version : Version 1
Format profile : Layer 3
Mode : Joint stereo
Mode extension : MS Stereo
Codec ID : 55
Codec ID/Hint : MP3
Duration : 1h 30mn
Bit rate mode : Variable
Bit rate : 103 Kbps
Nominal bit rate : 112 Kbps
Channel(s) : 2 channels
Sampling rate : 48.0 KHz
Stream size : 66.6 MiB (9%)
Alignment : Aligned on interleaves
Interleave, duration : 24 ms (0.58 video frame)
Interleave, preload duration : 178 ms
Writing library : LAME3.97 
Encoding settings : -m j -V 4 -q 2 -lowpass 16 --abr 112

IMDB 
http://www.imdb.com/title/tt1575694/

Shout out to noir and all my friends @ 1337x.org and extratorrent